<?xml version="1.0" encoding="UTF-8"?>
<svg width="277px" height="168px" viewBox="0 0 277 168" version="1.1" xmlns="http://www.w3.org/2000/svg" xmlns:xlink="http://www.w3.org/1999/xlink">
    <!-- Generator: Sketch 52.4 (67378) - http://www.bohemiancoding.com/sketch -->
    <title>Nf.</title>
    <desc>Created with Sketch.</desc>
    <g id="Page-1" stroke="none" stroke-width="1" fill="none" fill-rule="evenodd">
        <g id="Artboard" transform="translate(-662.000000, -234.000000)" fill="#222222">
            <path d="M662,400 L662,236 L703.176471,236 L760.366013,333.482517 L760.823529,333.482517 L760.823529,236 L802,236 L802,400 L760.823529,400 L703.633987,302.517483 L703.176471,302.517483 L703.176471,400 L662,400 Z M890,263.80663 C874.516923,263.80663 869.735385,263.80663 869.735385,277.563536 L869.735385,282.607735 L890,282.607735 L890,310.121547 L869.735385,310.121547 L869.735385,400 L833.304615,400 L833.304615,310.121547 L816,310.121547 L816,282.607735 L833.304615,282.607735 L833.304615,274.582873 C833.304615,248.21547 840.818462,234 867.458462,234 C877.704615,234 883.396923,234.917127 890,236.292818 L890,263.80663 Z M919.5,402 C908.488235,402 900,394.429412 900,382.5 C900,370.8 908.488235,363 919.5,363 C930.282353,363 939,370.8 939,382.5 C939,394.429412 930.282353,402 919.5,402 Z" id="Nf."></path>
        </g>
    </g>
</svg>